<?xml version="1.0" encoding="UTF-8" standalone="no"?>
<svg
   xmlns:dc="http://purl.org/dc/elements/1.1/"
   xmlns:cc="http://creativecommons.org/ns#"
   xmlns:rdf="http://www.w3.org/1999/02/22-rdf-syntax-ns#"
   xmlns:svg="http://www.w3.org/2000/svg"
   xmlns="http://www.w3.org/2000/svg"
   xmlns:sodipodi="http://sodipodi.sourceforge.net/DTD/sodipodi-0.dtd"
   xmlns:inkscape="http://www.inkscape.org/namespaces/inkscape"
   id="Layer_1"
   data-name="Layer 1"
   viewBox="0 0 209.99999 49.000002"
   version="1.1"
   sodipodi:docname="logo.svg"
   width="210"
   height="49"
   inkscape:version="0.92.5 (2060ec1f9f, 2020-04-08)">
  <metadata
     id="metadata25">
    <rdf:RDF>
      <cc:Work
         rdf:about="">
        <dc:format>image/svg+xml</dc:format>
        <dc:type
           rdf:resource="http://purl.org/dc/dcmitype/StillImage" />
        <dc:title />
      </cc:Work>
    </rdf:RDF>
  </metadata>
  <sodipodi:namedview
     pagecolor="#ffffff"
     bordercolor="#666666"
     borderopacity="1"
     objecttolerance="10"
     gridtolerance="10"
     guidetolerance="10"
     inkscape:pageopacity="0"
     inkscape:pageshadow="2"
     inkscape:window-width="1982"
     inkscape:window-height="1070"
     id="namedview23"
     showgrid="false"
     inkscape:zoom="1.2943509"
     inkscape:cx="-38.263144"
     inkscape:cy="-77.592847"
     inkscape:window-x="1743"
     inkscape:window-y="744"
     inkscape:window-maximized="0"
     inkscape:current-layer="Layer_1" />
  <defs
     id="defs4">
    <style
       id="style2">.cls-1{fill:#fff;}.cls-2{fill:#2d88b6;}</style>
  </defs>
  <path
     class="cls-1"
     d="m 34.424319,36.542383 a 15.447059,15.447059 0 0 0 6.039326,-12.261387 c 0,-8.547454 -6.929204,-15.4766571 -15.476658,-15.4766571 -0.302417,0 -0.601616,0.010938 -0.900815,0.028315 H 9.5103299 V 39.757011 a 21.868588,21.868588 0 0 0 9.4315411,5.558032 v -5.558032 h 5.716318 v -0.0084 c 0.110029,0 0.21877,0.0084 0.328798,0.0084 h 0.0096 l 4.563277,5.928654 a 21.799097,21.799097 0 0 0 8.773945,-4.063966 z"
     id="path6"
     inkscape:connector-curvature="0"
     style="fill:#ffffff;stroke-width:0.06434398" />
  <path
     class="cls-2"
     d="m 46.873591,24.280996 c 0,7.062394 -3.345886,13.339148 -8.539733,17.341344 l -3.909539,-5.079314 a 15.446416,15.446416 0 0 0 6.038682,-12.26203 c 0,-8.547454 -6.92856,-15.4766571 -15.476014,-15.4766571 -0.302417,0 -0.601616,0.010938 -0.900815,0.028315 H 9.5103299 V 39.757008 A 21.8184,21.8184 0 0 1 3.0997396,24.280996 c 0,-12.088303 9.7989444,-21.887891 21.8872474,-21.887891 12.088303,0 21.886604,9.799588 21.886604,21.887891 z M 24.986987,39.757008 c -0.110028,0 -0.218769,-0.0058 -0.328798,-0.0084 v 0.0084 h -5.716318 v 5.558033 a 21.891752,21.891752 0 0 0 10.616755,0.370622 l -4.563274,-5.928655 z"
     id="path8"
     inkscape:connector-curvature="0"
     style="fill:#2d88b6;stroke-width:0.06434398" />
  <path
     class="cls-2"
     d="m 66.012065,8.8468061 h 14.978636 c 4.565208,0 9.605269,3.4230999 9.605269,10.4134299 0,5.087677 -2.710813,8.321606 -5.943453,9.651596 l 6.608771,10.841315 H 83.178396 L 77.044482,29.672378 H 73.001746 V 39.754435 H 66.012065 Z M 79.802907,22.921408 c 1.994669,0 3.802727,-1.283663 3.802727,-3.661172 0,-2.377511 -1.806775,-3.614202 -3.802727,-3.614202 h -6.801161 v 7.275374 z"
     id="path10"
     inkscape:connector-curvature="0"
     style="fill:#2d88b6;stroke-width:0.06434398" />
  <path
     class="cls-2"
     d="m 92.970258,28.81789 c 0,-6.514828 4.280809,-11.364434 10.938482,-11.364434 6.56308,0 10.55627,4.849606 10.55627,11.364434 v 1.806779 H 99.537208 c 0.570082,2.472739 2.376872,3.85163 4.612822,3.85163 2.7565,0 4.04144,-1.283662 4.61153,-2.044208 l 4.61282,3.423098 c -1.90265,2.663197 -5.23052,4.375391 -9.22435,4.375391 -6.757408,-6.35e-4 -11.179772,-4.898506 -11.179772,-11.41269 z m 15.120832,-2.425124 c -0.57008,-2.092466 -1.90265,-3.613558 -4.18235,-3.613558 -2.1877,0 -3.66182,1.378891 -4.279518,3.613558 z"
     id="path12"
     inkscape:connector-curvature="0"
     style="fill:#2d88b6;stroke-width:0.06434398" />
  <path
     class="cls-2"
     d="m 118.55085,17.881344 h 6.7529 v 1.994663 c 1.56935,-1.616321 3.66053,-2.329895 5.56319,-2.329895 2.38071,0 5.04005,0.808804 6.65766,3.138699 1.85311,-2.37751 4.70677,-3.138699 7.03666,-3.138699 3.7564,0 8.13115,1.949622 8.13115,8.844723 v 13.3636 h -6.75162 V 27.343769 c 0,-3.565943 -2.66319,-3.899245 -3.51897,-3.899245 -0.90081,0 -3.42374,0.333302 -3.42374,3.899245 v 12.410666 h -6.75161 V 27.343769 c 0,-3.565943 -2.6632,-3.899245 -3.51898,-3.899245 -0.90081,0 -3.42374,0.333302 -3.42374,3.899245 v 12.410666 h -6.7529 z"
     id="path14"
     inkscape:connector-curvature="0"
     style="fill:#2d88b6;stroke-width:0.06434398" />
  <path
     class="cls-2"
     d="m 157.72926,11.412201 c 0,-2.2822816 1.85439,-3.5183295 3.61355,-3.5183295 1.80743,0 3.66182,1.2360479 3.66182,3.5183295 0,2.330538 -1.85439,3.708787 -3.66182,3.708787 -1.75916,0.002 -3.61355,-1.376318 -3.61355,-3.708787 z m 0.23807,6.467212 h 6.84684 l -0.0476,21.873091 h -6.79729 z"
     id="path16"
     inkscape:connector-curvature="0"
     style="fill:#2d88b6;stroke-width:0.06434398" />
  <path
     class="cls-2"
     d="M 171.37404,33.096121 V 22.969023 h -2.75649 v -5.087679 h 2.75649 v -6.752257 h 6.79923 v 6.752257 h 8.41619 v -6.752257 h 6.80116 v 6.752257 h 4.4719 v 5.087679 h -4.4719 v 8.986923 c 0,2.663197 1.61632,2.567968 2.90127,2.567968 h 1.33064 v 5.230521 H 193.343 c -4.66043,0 -6.7516,-2.425125 -6.7516,-6.657027 V 22.969023 h -8.41813 v 8.986923 c 0,2.663197 1.61632,2.567968 2.85236,2.567968 h 1.37954 v 5.230521 h -4.27952 c -4.70611,0 -6.75161,-2.425125 -6.75161,-6.658314 z"
     id="path18"
     inkscape:connector-curvature="0"
     style="fill:#2d88b6;stroke-width:0.06434398" />
  <path
     class="cls-2"
     d="m 31.018591,24.294507 a 6.0444735,6.0444735 0 0 0 -6.038037,-6.044474 h -6.031606 v 5.630099 c -0.0096,0.137696 -0.02124,0.274748 -0.02124,0.415018 0,0.14027 0.01158,0.277322 0.02124,0.415019 v 5.630098 h 6.030961 a 6.048334,6.048334 0 0 0 6.038682,-6.04576 z"
     id="path20"
     inkscape:connector-curvature="0"
     style="fill:#2d88b6;stroke-width:0.06434398" />
</svg>
